<svg width="24" height="25" viewBox="0 0 24 25" fill="none" xmlns="http://www.w3.org/2000/svg">
<path d="M2.66667 25C1.93333 25 1.30556 24.7552 0.783333 24.2656C0.261111 23.776 0 23.1875 0 22.5V5C0 4.3125 0.261111 3.72396 0.783333 3.23438C1.30556 2.74479 1.93333 2.5 2.66667 2.5H4V0H6.66667V2.5H17.3333V0H20V2.5H21.3333C22.0667 2.5 22.6944 2.74479 23.2167 3.23438C23.7389 3.72396 24 4.3125 24 5V22.5C24 23.1875 23.7389 23.776 23.2167 24.2656C22.6944 24.7552 22.0667 25 21.3333 25H2.66667ZM2.66667 22.5H21.3333V5H2.66667V22.5ZM8 22.5V20.25L5.6 17.625C5.35556 17.3958 5.13889 17.0833 4.95 16.6875C4.76111 16.2917 4.66667 15.8333 4.66667 15.3125C4.66667 15.0417 4.69444 14.776 4.75 14.5156C4.80556 14.2552 4.9 14 5.03333 13.75C4.92222 13.5208 4.83333 13.276 4.76667 13.0156C4.7 12.7552 4.66667 12.4792 4.66667 12.1875C4.66667 11.6667 4.76111 11.2083 4.95 10.8125C5.13889 10.4167 5.35556 10.1042 5.6 9.875L8 7.25V5H10V7.59375C10 7.69792 9.92222 7.89583 9.76667 8.1875L7.1 11.125C6.94444 11.2917 6.83333 11.4635 6.76667 11.6406C6.7 11.8177 6.66667 12 6.66667 12.1875C6.66667 12.6042 6.81111 12.9635 7.1 13.2656C7.38889 13.5677 7.75556 13.7188 8.2 13.7188C8.4 13.7188 8.58889 13.6875 8.76667 13.625C8.94444 13.5625 9.1 13.4583 9.23333 13.3125C9.61111 12.9583 10.0389 12.6875 10.5167 12.5C10.9944 12.3125 11.4889 12.2188 12 12.2188C12.5111 12.2188 13.0056 12.3125 13.4833 12.5C13.9611 12.6875 14.3889 12.9583 14.7667 13.3125C14.9222 13.4583 15.0889 13.5625 15.2667 13.625C15.4444 13.6875 15.6222 13.7188 15.8 13.7188C16.2444 13.7188 16.6111 13.5677 16.9 13.2656C17.1889 12.9635 17.3333 12.6146 17.3333 12.2188C17.3333 12.0312 17.2944 11.849 17.2167 11.6719C17.1389 11.4948 17.0333 11.3229 16.9 11.1562L14.2333 8.1875C14.1444 8.10417 14.0833 8.01042 14.05 7.90625C14.0167 7.80208 14 7.69792 14 7.59375V5H16V7.25L18.4333 9.9375C18.7444 10.2708 18.9722 10.6302 19.1167 11.0156C19.2611 11.401 19.3333 11.8021 19.3333 12.2188C19.3333 12.4896 19.2944 12.7552 19.2167 13.0156C19.1389 13.276 19.0444 13.5208 18.9333 13.75C19.0667 14 19.1667 14.2552 19.2333 14.5156C19.3 14.776 19.3333 15.0417 19.3333 15.3125C19.3333 15.8333 19.2389 16.2917 19.05 16.6875C18.8611 17.0833 18.6444 17.3958 18.4 17.625L16 20.25V22.5H14V19.9062C14 19.7812 14.0778 19.5833 14.2333 19.3125L16.9 16.375C17.0556 16.2083 17.1667 16.0312 17.2333 15.8438C17.3 15.6562 17.3333 15.4688 17.3333 15.2812C17.0889 15.3854 16.8444 15.4635 16.6 15.5156C16.3556 15.5677 16.1 15.5938 15.8333 15.5938C15.3889 15.5938 14.9444 15.5104 14.5 15.3438C14.0556 15.1771 13.6667 14.9271 13.3333 14.5938C13.1778 14.4271 12.9833 14.3021 12.75 14.2188C12.5167 14.1354 12.2667 14.0938 12 14.0938C11.7556 14.0938 11.5167 14.1354 11.2833 14.2188C11.05 14.3021 10.8444 14.4271 10.6667 14.5938C10.3333 14.9271 9.95 15.1771 9.51667 15.3438C9.08333 15.5104 8.64444 15.5938 8.2 15.5938C7.93333 15.5938 7.67222 15.5677 7.41667 15.5156C7.16111 15.4635 6.91111 15.3854 6.66667 15.2812C6.66667 15.4688 6.7 15.6562 6.76667 15.8438C6.83333 16.0312 6.94444 16.2083 7.1 16.375L9.76667 19.3125C9.83333 19.4167 9.88889 19.5156 9.93333 19.6094C9.97778 19.7031 10 19.8021 10 19.9062V22.5H8Z" fill="white"/>
</svg>
