<svg width="52" height="63" viewBox="0 0 52 63" fill="none" xmlns="http://www.w3.org/2000/svg">
<path d="M25.9583 55.625L10.3833 62.3C7.91111 63.3507 5.5625 63.1504 3.3375 61.6993C1.1125 60.2481 0 58.1924 0 55.5323V7.41667C0 5.37708 0.726833 3.63169 2.1805 2.1805C3.63417 0.729306 5.37956 0.00247222 7.41667 0H44.5C46.5396 0 48.2862 0.726834 49.7399 2.1805C51.1935 3.63417 51.9191 5.37956 51.9167 7.41667V55.5323C51.9167 58.1899 50.8042 60.2456 48.5792 61.6993C46.3542 63.1529 44.0056 63.3532 41.5333 62.3L25.9583 55.625ZM25.9583 47.4667L44.5 55.4396V7.41667H7.41667V55.4396L25.9583 47.4667ZM25.9583 7.41667H7.41667H44.5H25.9583Z" fill="#D9D9D9"/>
</svg>
